<?xml version="1.0" encoding="utf-8"?>
<!-- Generator: Adobe Illustrator 18.0.0, SVG Export Plug-In . SVG Version: 6.00 Build 0)  -->
<!DOCTYPE svg PUBLIC "-//W3C//DTD SVG 1.1//EN" "http://www.w3.org/Graphics/SVG/1.1/DTD/svg11.dtd">
<svg version="1.1" id="Layer_1" xmlns="http://www.w3.org/2000/svg" xmlns:xlink="http://www.w3.org/1999/xlink" x="0px" y="0px"
	 viewBox="0 0 114.1 37" enable-background="new 0 0 114.1 37" xml:space="preserve">
<g>
	<path stroke="#FFFFFF" stroke-width="0.5" stroke-miterlimit="10" d="M57.4,33.8c-16.6,0-33.2,0-49.8,0c-2.2,0-3.5-1.2-3.5-3.4
		c0-7.9,0-15.8,0-23.8c0-2.2,1.3-3.4,3.4-3.4c33.2,0,66.4,0,99.7,0c2,0,3.5,1.4,3.4,3.4c-0.1,7.9-0.1,15.9,0,23.8
		c0,2-1.5,3.4-3.4,3.4C90.6,33.8,74,33.8,57.4,33.8z"/>
	<path fill="#FFFFFF" d="M29.8,14.4c-0.2,0.1-0.3,0.2-0.4,0.3c-2.6,2.1-2.3,5.9,0.6,7.5c0.3,0.2,0.3,0.3,0.2,0.6
		c-0.6,1.5-1.4,2.8-2.4,4c-0.9,1.1-2,1.3-3.3,0.7c-1.4-0.6-2.7-0.6-4.1,0c-1.4,0.6-2.3,0.4-3.3-0.7c-2.3-2.5-3.5-5.5-3.3-8.9
		c0-1.4,0.5-2.7,1.4-3.8c1-1.2,3.1-2.3,5.3-1.4c0.1,0,0.1,0,0.2,0.1c1,0.5,1.9,0.5,3,0c1.3-0.6,2.6-0.7,4-0.2
		C28.5,13.1,29.2,13.6,29.8,14.4z"/>
	<path fill="#FFFFFF" d="M58.4,30.8c-0.6,0-1.1,0-1.7,0c0-3.6,0-7.1,0-10.7c0.4,0,0.9,0,1.4,0c0,0.3,0.1,0.7,0.1,1.1
		c0.6-0.8,1.2-1.2,2.1-1.3c1.4-0.2,2.5,0.4,3.1,1.6c0.8,1.6,0.8,3.2-0.1,4.8c-0.7,1.3-2.2,1.9-3.6,1.5c-0.5-0.1-0.9-0.5-1.4-0.8
		c0,0.5,0,1.2,0,1.8C58.4,29.5,58.4,30.1,58.4,30.8z M58.3,23.9C58.4,23.9,58.4,23.9,58.3,23.9c0.1,0.3,0,0.6,0.1,0.8
		c0.1,0.9,0.7,1.6,1.5,1.7c0.9,0.2,1.7-0.2,2-1.1c0.5-1,0.5-2.1,0-3.1c-0.3-0.8-1-1.2-1.8-1.1c-0.8,0.1-1.5,0.6-1.6,1.4
		C58.4,23.1,58.4,23.5,58.3,23.9z"/>
	<path fill="#FFFFFF" d="M49.5,26.8c0,1.4,0,2.7,0,4c-0.6,0-1.1,0-1.7,0c0-3.6,0-7.2,0-10.7c0.5,0,0.9,0,1.4,0
		c0,0.4,0.1,0.7,0.1,1.1c0,0,0.1,0.1,0.1,0.1c0-0.1,0-0.2,0.1-0.2c1.3-1.5,3.5-1.5,4.8,0.1c1.2,1.5,1.1,4.3-0.2,5.7
		C53.2,28,50.8,28.4,49.5,26.8z M49.5,23.9C49.5,23.9,49.5,23.9,49.5,23.9c0.1,0.3,0.1,0.6,0.1,0.9c0.1,0.9,0.7,1.6,1.6,1.7
		c0.9,0.1,1.6-0.3,2-1.2c0.4-1,0.4-2,0-3c-0.3-0.7-0.9-1.1-1.7-1.1c-0.8,0-1.5,0.5-1.7,1.3C49.6,23,49.6,23.5,49.5,23.9z"/>
	<path fill="#FFFFFF" d="M37.4,27.7c0.3-1,0.6-1.9,0.9-2.8c0.8-2.5,1.6-4.9,2.4-7.4c0.1-0.3,0.2-0.4,0.6-0.4c0.4,0,0.9,0,1.3,0
		c0.2,0,0.4,0.1,0.5,0.3c1.1,3.3,2.2,6.7,3.2,10c0,0.1,0,0.2,0.1,0.3c-0.6,0-1.1,0-1.6,0c-0.1,0-0.3-0.2-0.3-0.3
		c-0.3-0.8-0.5-1.6-0.8-2.4c-0.1-0.3-0.2-0.4-0.5-0.4c-0.9,0-1.8,0-2.7,0c-0.3,0-0.4,0.1-0.5,0.4c-0.2,0.8-0.5,1.6-0.7,2.4
		c-0.1,0.3-0.2,0.4-0.5,0.4C38.3,27.7,37.9,27.7,37.4,27.7z M41.8,18.6c-0.5,1.5-0.9,3.1-1.4,4.6c1,0,1.9,0,2.8,0
		C42.7,21.7,42.3,20.2,41.8,18.6z"/>
	<path fill="#FFFFFF" d="M73.5,17.4c-0.2,0.5-0.3,0.9-0.4,1.2c-0.9-0.1-1.6-0.3-2.4-0.3c-0.8,0-1.3,0.5-1.4,1
		c-0.2,0.7,0.1,1.2,0.8,1.6c0.4,0.2,0.8,0.4,1.2,0.6c0.5,0.3,1,0.5,1.5,0.8c1.7,1.3,1.6,3.9-0.3,4.9c-1.6,0.8-3.2,0.7-4.8,0
		c-0.1,0-0.2-0.3-0.2-0.4c0.1-0.4,0.2-0.7,0.3-1.1c0.9,0.5,1.9,0.7,2.9,0.6c1-0.1,1.6-0.8,1.6-1.7c0-0.5-0.2-0.9-0.6-1.2
		c-0.4-0.2-0.8-0.4-1.2-0.6c-0.6-0.3-1.2-0.6-1.8-1c-1.6-1.3-1.4-3.6,0.4-4.6C70.4,16.6,71.9,16.8,73.5,17.4z"/>
	<path fill="#FFFFFF" d="M80.5,23.8c0.1-1.9,1.1-3.3,2.6-3.8c2.9-0.8,5.2,1.3,4.9,4.3c-0.3,2.5-2.1,3.9-4.6,3.5
		C81.6,27.5,80.4,25.9,80.5,23.8z M86.2,23.8c0-0.7-0.2-1.4-0.6-2c-0.7-1-2.1-1-2.8,0c-0.8,1.1-0.8,3,0,4c0.7,1,2.1,1,2.9,0
		C86,25.2,86.2,24.6,86.2,23.8z"/>
	<path fill="#FFFFFF" d="M100.5,26.3c0.1,0.3,0.1,0.6,0.2,1c-0.2,0.1-0.4,0.2-0.6,0.2c-0.9,0.1-1.8,0.2-2.7,0.2
		c-1.5-0.1-2.6-1.1-2.9-2.6c-0.3-1.3-0.2-2.5,0.5-3.7c0.8-1.4,2.3-2,3.8-1.6c1.3,0.3,2.1,1.4,2.3,2.9c0,0.4,0,0.9,0,1.4
		c-1.7,0-3.4,0-5.1,0c-0.1,1.2,0.8,2.2,2,2.2C98.8,26.5,99.6,26.4,100.5,26.3z M99.5,23.1c0.1-1.2-0.6-2-1.6-2c-1,0-1.9,0.9-1.8,2
		C97.2,23.1,98.3,23.1,99.5,23.1z"/>
	<path fill="#FFFFFF" d="M75.9,21.3c-0.4,0-0.7,0-1.1,0c0-0.4,0-0.8,0-1.3c0.3,0,0.7,0,1.1,0c0-0.4,0-0.7,0-1.1
		c0-0.3,0.1-0.4,0.3-0.5c0.4-0.1,0.8-0.2,1.3-0.4c0,0.7,0,1.2,0,1.9c0.6,0,1.2,0,1.8,0c0,0.4,0,0.8,0,1.3c-0.6,0-1.2,0-1.8,0
		c0,0.2,0,0.4,0,0.6c0,1,0,2.1,0,3.1c0,1.2,0.3,1.5,1.5,1.4c0.1,0,0.1,0,0.2,0c0,0.3,0.1,0.7,0,1c0,0.1-0.2,0.3-0.3,0.3
		c-0.6,0-1.2,0.1-1.7,0c-0.9-0.1-1.4-0.9-1.4-1.9c-0.1-1.3,0-2.6,0-3.9C75.9,21.7,75.9,21.6,75.9,21.3z"/>
	<path fill="#FFFFFF" d="M93.5,19.9c0,0.5,0,1,0,1.5c-0.1,0-0.1,0-0.1,0c-1.5-0.2-2.2,0.9-2.2,2.1c0,1.2,0,2.3,0,3.5
		c0,0.2,0,0.4,0,0.6c-0.6,0-1.1,0-1.7,0c0-2.5,0-5,0-7.6c0.4,0,0.9,0,1.4,0c0,0.4,0,0.9,0.1,1.4C91.5,20.3,92.3,19.7,93.5,19.9z"/>
	<path fill="#FFFFFF" d="M26,7.5c0.4,2.3-1.8,4.8-4,4.6C21.5,10.2,23.9,7.5,26,7.5z"/>
	<path fill="#FFFFFF" d="M38.4,8.1c1-0.1,2-0.2,2.9,0.2C41.7,8.4,42,8.7,42.2,9c1.2,1.6,0.2,4-1.7,4.3c-0.7,0.1-1.4,0-2.1,0
		C38.4,11.5,38.4,9.8,38.4,8.1z M39.2,8.7c0,1.3,0,2.4,0,3.6c0,0.1,0.1,0.2,0.2,0.3c0.6,0.2,1.7-0.2,2-0.8c0.4-0.7,0.5-1.9,0-2.5
		C40.9,8.6,40.1,8.6,39.2,8.7z"/>
	<path fill="#FFFFFF" d="M52.1,12.3c0.2-0.8,0.4-1.5,0.6-2.2c0.2-0.7,0.2-0.7,1-0.6c-0.2,0.5-0.3,1-0.5,1.5
		c-0.2,0.6-0.4,1.2-0.6,1.9c-0.1,0.3-0.2,0.4-0.5,0.4c-0.3,0-0.4-0.1-0.5-0.4c-0.2-0.7-0.4-1.5-0.7-2.3c-0.1,0.2-0.1,0.4-0.2,0.6
		c-0.2,0.6-0.4,1.1-0.5,1.7c-0.1,0.3-0.2,0.4-0.5,0.4c-0.3,0-0.4-0.1-0.5-0.4c-0.3-1.1-0.6-2.2-1-3.3c0.8-0.1,0.8-0.1,1,0.6
		c0.2,0.7,0.3,1.4,0.5,2.2c0.3-0.9,0.5-1.7,0.7-2.5c0.1-0.3,0.2-0.4,0.5-0.4c0.3,0,0.4,0.1,0.4,0.4C51.6,10.7,51.9,11.5,52.1,12.3z"
		/>
	<path fill="#FFFFFF" d="M74,13.2c-0.2,0-0.4,0-0.7,0c0-0.1-0.1-0.3-0.1-0.5c-0.5,0.6-1.2,0.8-1.8,0.4c-0.7-0.3-1-1-0.9-1.7
		c0-0.3,0-0.7,0.2-1c0.4-1.1,1.5-1.4,2.6-0.7c0-0.4,0-0.7,0-1c0-0.3,0-0.6,0-1c0.3,0,0.5,0,0.8,0c0,0.9,0,1.8,0,2.7
		C74,11.4,74,12.3,74,13.2z M73.2,11.3C73.2,11.3,73.2,11.3,73.2,11.3c0-0.1,0-0.2,0-0.3c0-0.5-0.3-0.9-0.8-0.9
		c-0.5-0.1-0.9,0.2-1,0.7c-0.1,0.2-0.1,0.4-0.1,0.6c0,0.7,0.4,1.2,1,1.2C72.9,12.7,73.2,12.2,73.2,11.3
		C73.2,11.4,73.2,11.4,73.2,11.3z"/>
	<path fill="#FFFFFF" d="M92.5,7.8c0.3,0,0.5,0,0.8,0c0,0.7,0,1.4,0,2.1c0.1-0.1,0.2-0.1,0.3-0.2c0.9-0.7,2-0.3,2.1,0.9
		c0.1,0.9,0,1.7,0,2.6c-0.2,0-0.5,0-0.8,0c0-0.5,0-1,0-1.6c0-0.3,0-0.5,0-0.8c-0.1-0.5-0.3-0.8-0.7-0.7c-0.5,0-0.8,0.3-0.8,0.8
		c0,0.6,0,1.3,0,1.9c0,0.1,0,0.3,0,0.4c-0.3,0-0.5,0-0.8,0c0-0.9,0-1.8,0-2.7C92.5,9.6,92.5,8.7,92.5,7.8z"/>
	<path fill="#FFFFFF" d="M77.5,11.4c0-1.2,0.7-2,1.9-2c1.1,0,1.8,0.8,1.8,1.9c0,1.2-0.7,2-1.9,2C78.3,13.3,77.5,12.6,77.5,11.4z
		 M80.3,11.4c0-0.8-0.4-1.3-0.9-1.3c-0.6,0-1,0.5-1,1.3c0,0.8,0.4,1.4,1,1.4C79.9,12.8,80.4,12.2,80.3,11.4z"/>
	<path fill="#FFFFFF" d="M47.4,11.3c0,1.2-0.7,2-1.9,2c-1.1,0-1.8-0.8-1.8-1.9c0-1.2,0.7-2,1.9-2C46.7,9.4,47.4,10.2,47.4,11.3z
		 M46.5,11.4c0-0.8-0.4-1.3-0.9-1.3c-0.6,0-1,0.5-1,1.3c0,0.8,0.4,1.4,1,1.4C46.1,12.7,46.5,12.2,46.5,11.4z"/>
	<path fill="#FFFFFF" d="M65.3,11.4c0,1.2-0.8,2-1.9,2c-1.1,0-1.8-0.8-1.8-2c0-1.2,0.8-2,1.9-2C64.5,9.4,65.3,10.2,65.3,11.4z
		 M62.4,11.4c0,0.8,0.4,1.3,1,1.3c0.6,0,1-0.6,1-1.3c0-0.8-0.4-1.4-1-1.4C62.8,10,62.4,10.6,62.4,11.4z"/>
	<path fill="#FFFFFF" d="M100.4,11.6c-0.9,0-1.7,0-2.5,0c0.1,1,0.5,1.2,2.2,1c0,0.1,0.1,0.3,0.1,0.4c-0.9,0.5-2.1,0.4-2.7-0.3
		c-0.6-0.7-0.5-2.1,0.1-2.8c0.5-0.5,1-0.6,1.7-0.4c0.6,0.1,0.9,0.6,1.1,1.2C100.4,10.9,100.4,11.2,100.4,11.6z M99.6,11
		c0-0.6-0.3-1-0.8-1c-0.5,0-0.8,0.4-0.9,1C98.5,11,99,11,99.6,11z"/>
	<path fill="#FFFFFF" d="M66.6,10.3c-0.1-0.2-0.1-0.3-0.2-0.5c0.6-0.3,1.3-0.4,1.9-0.2c0.5,0.2,0.8,0.6,0.8,1.1c0,0.9,0,1.7,0,2.6
		c-0.3,0-0.7,0.2-0.7-0.3c-0.2,0.1-0.4,0.3-0.7,0.3c-0.6,0.2-1.3-0.1-1.5-0.6c-0.2-0.6,0-1.3,0.7-1.6c0.2-0.1,0.5-0.2,0.7-0.2
		c0.2-0.1,0.5-0.1,0.7-0.1C68.4,10,67.8,9.8,66.6,10.3z M68.4,11.3c-0.3,0.1-0.7,0.1-1,0.3c-0.3,0.2-0.4,0.5-0.2,0.8
		c0.2,0.3,0.5,0.3,0.8,0.2C68.4,12.5,68.5,12.2,68.4,11.3z"/>
	<path fill="#FFFFFF" d="M83.3,13.2c-0.3,0-0.5,0-0.8,0c0-1.2,0-2.5,0-3.7c0.2,0,0.4,0,0.6,0c0,0.1,0,0.3,0.1,0.4
		c0.1,0,0.1,0,0.1-0.1c0.4-0.5,1-0.6,1.6-0.4c0.6,0.2,0.8,0.8,0.8,1.4c0,0.8,0,1.5,0,2.3c-0.3,0-0.5,0-0.8,0c0-0.5,0-1.1,0-1.6
		c0-0.3,0-0.5,0-0.8c0-0.4-0.2-0.7-0.6-0.7c-0.5,0-0.8,0.2-0.9,0.6c-0.1,0.4-0.1,0.8-0.1,1.2C83.3,12.4,83.3,12.8,83.3,13.2z"/>
	<path fill="#FFFFFF" d="M54.8,9.5c0.2,0,0.4,0,0.6,0c0,0.1,0.1,0.3,0.1,0.5c0.1-0.1,0.2-0.2,0.2-0.2c0.4-0.3,0.9-0.5,1.4-0.3
		c0.5,0.2,0.8,0.6,0.8,1.1c0,0.8,0,1.7,0,2.6c-0.3,0-0.5,0-0.8,0c0-0.5,0-1,0-1.5c0-0.3,0-0.5,0-0.8c0-0.4-0.2-0.8-0.7-0.8
		c-0.4,0-0.8,0.3-0.8,0.8c0,0.5,0,1,0,1.5c0,0.3,0,0.6,0,0.9c-0.3,0-0.5,0-0.8,0C54.8,12,54.8,10.8,54.8,9.5z"/>
	<path fill="#FFFFFF" d="M90.5,8.6c0,0.3,0,0.6,0,0.9c0.3,0,0.6,0,0.9,0c0,0.2,0,0.4,0,0.6c-0.3,0-0.6,0-0.9,0c0,0.7,0,1.4,0,2
		c0,0.5,0.4,0.5,0.8,0.5c0,0.2,0,0.4,0,0.5c-0.9,0.4-1.6,0-1.7-1c0-0.7,0-1.4,0-2.1c-0.2,0-0.4,0-0.5-0.1c0-0.2,0-0.3,0-0.5
		c0.1,0,0.3,0,0.5-0.1C89.5,8.9,89.8,8.6,90.5,8.6z"/>
	<path fill="#FFFFFF" d="M60.3,13.2c-0.3,0-0.5,0-0.8,0c0-1.8,0-3.6,0-5.4c0.3,0,0.5,0,0.8,0C60.3,9.6,60.3,11.4,60.3,13.2z"/>
</g>
</svg>
