<?xml version="1.0" encoding="utf-8"?>
<!-- Generator: Adobe Illustrator 23.0.1, SVG Export Plug-In . SVG Version: 6.00 Build 0)  -->
<svg version="1.1" id="Layer_1" xmlns="http://www.w3.org/2000/svg" xmlns:xlink="http://www.w3.org/1999/xlink" x="0px" y="0px"
	 viewBox="0 0 114.1 37" enable-background="new 0 0 114.1 37" xml:space="preserve">
<g>
	<path d="M110.3,6.7L110.3,6.7c0-2.1-1.7-3.9-3.9-3.9H7.7c-2.2,0-3.9,1.8-3.9,3.9v0c0-2.2,1.7-3.9,3.9-3.9h98.6
		C108.6,2.7,110.3,4.4,110.3,6.7z"/>
	<path d="M106.4,34.3H7.7c-2.2,0-3.9-1.7-3.9-3.9v0c0,2.2,1.7,3.9,3.9,3.9L106.4,34.3c2.2,0,3.9-1.7,3.9-3.9v0
		C110.3,32.5,108.6,34.3,106.4,34.3z"/>
	<path stroke="#FFFFFF" stroke-width="0.5" stroke-miterlimit="10" d="M110.3,6.7v23.6c0,2.2-1.7,3.9-3.9,3.9H7.7
		c-2.2,0-3.9-1.7-3.9-3.9V6.7c0-2.1,1.7-3.9,3.9-3.9h98.6C108.6,2.7,110.3,4.5,110.3,6.7z"/>
	<path fill="#FFFFFF" d="M41.2,10.8c0,0.6-0.2,1.2-0.6,1.6c-0.5,0.5-1,0.7-1.7,0.7s-1.3-0.2-1.7-0.7c-0.5-0.5-0.7-1-0.7-1.7
		c0-0.7,0.2-1.3,0.7-1.7c0.5-0.5,1-0.7,1.7-0.7c0.3,0,0.6,0.1,0.9,0.2c0.3,0.2,0.6,0.3,0.7,0.6l-0.4,0.4c-0.3-0.4-0.7-0.6-1.3-0.6
		c-0.5,0-0.9,0.2-1.3,0.6c-0.4,0.3-0.6,0.8-0.6,1.3c0,0.6,0.2,1,0.6,1.3s0.8,0.6,1.3,0.6c0.6,0,0.9-0.2,1.3-0.6
		c0.2-0.2,0.4-0.6,0.4-0.9h-1.7v-0.6h2.3L41.2,10.8L41.2,10.8z M44.8,8.8h-2.1v1.5h2v0.6h-2v1.5h2.1V13h-2.8V8.3h2.8V8.8z M47.4,13
		h-0.6V8.8h-1.3V8.3h3.3v0.6h-1.3V13z M51,13V8.3h0.6V13H51z M54.4,13h-0.6V8.8h-1.3V8.3h3.2v0.6h-1.3L54.4,13L54.4,13z M61.9,12.4
		c-0.5,0.5-1,0.7-1.7,0.7c-0.7,0-1.3-0.2-1.7-0.7c-0.5-0.5-0.7-1-0.7-1.7c0-0.7,0.2-1.3,0.7-1.7c0.5-0.5,1-0.7,1.7-0.7
		c0.7,0,1.3,0.2,1.7,0.7s0.7,1,0.7,1.7C62.6,11.3,62.3,11.9,61.9,12.4z M58.9,12c0.3,0.3,0.8,0.6,1.3,0.6c0.5,0,0.9-0.2,1.3-0.6
		c0.3-0.3,0.6-0.8,0.6-1.3c0-0.6-0.2-1-0.6-1.3c-0.3-0.3-0.8-0.6-1.3-0.6c-0.5,0-0.9,0.2-1.3,0.6c-0.3,0.3-0.6,0.8-0.6,1.3
		C58.3,11.2,58.5,11.6,58.9,12z M63.4,13V8.3h0.7l2.3,3.7V8.3h0.6V13h-0.6L64,9.1V13H63.4L63.4,13z"/>
	<path fill="#FFFFFF" d="M57.5,19.9c-1.9,0-3.4,1.4-3.4,3.4c0,1.9,1.5,3.4,3.4,3.4s3.4-1.4,3.4-3.4C60.9,21.3,59.4,19.9,57.5,19.9z
		 M57.5,25.3c-1,0-1.9-0.9-1.9-2.1c0-1.2,0.9-2.1,1.9-2.1s1.9,0.8,1.9,2.1C59.4,24.4,58.5,25.3,57.5,25.3z M50.2,19.9
		c-1.9,0-3.4,1.4-3.4,3.4c0,1.9,1.5,3.4,3.4,3.4c1.9,0,3.4-1.4,3.4-3.4C53.6,21.3,52.1,19.9,50.2,19.9z M50.2,25.3
		c-1,0-1.9-0.9-1.9-2.1c0-1.2,0.9-2.1,1.9-2.1c1,0,1.9,0.8,1.9,2.1C52.1,24.4,51.2,25.3,50.2,25.3z M41.4,21v1.4h3.4
		c-0.1,0.8-0.4,1.4-0.8,1.8c-0.5,0.5-1.3,1-2.6,1c-2.1,0-3.7-1.7-3.7-3.8s1.7-3.8,3.7-3.8c1.1,0,2,0.5,2.6,1l1-1
		c-0.9-0.8-2-1.4-3.6-1.4c-2.8,0-5.3,2.4-5.3,5.2s2.4,5.2,5.3,5.2c1.6,0,2.7-0.5,3.6-1.5c0.9-0.9,1.3-2.3,1.3-3.3
		c0-0.3,0-0.6-0.1-0.9L41.4,21L41.4,21z M77.2,22.1c-0.3-0.8-1.1-2.1-2.8-2.1s-3.2,1.3-3.2,3.4c0,1.9,1.4,3.4,3.3,3.4
		c1.5,0,2.4-0.9,2.8-1.5l-1.1-0.8c-0.4,0.6-0.9,0.9-1.7,0.9s-1.3-0.3-1.7-1l4.5-1.9L77.2,22.1L77.2,22.1z M72.7,23.2
		c0-1.3,1-2,1.7-2c0.6,0,1.1,0.3,1.3,0.7L72.7,23.2L72.7,23.2z M69,26.4h1.5v-9.9H69V26.4z M66.6,20.6c-0.4-0.4-1-0.8-1.8-0.8
		c-1.7,0-3.2,1.5-3.2,3.4c0,1.9,1.5,3.3,3.2,3.3c0.8,0,1.4-0.4,1.7-0.8h0.1v0.5c0,1.3-0.7,2-1.8,2c-0.9,0-1.5-0.6-1.7-1.2l-1.3,0.6
		c0.4,0.9,1.3,2,3,2c1.7,0,3.2-1,3.2-3.5v-6h-1.4L66.6,20.6L66.6,20.6z M64.9,25.3c-1,0-1.9-0.9-1.9-2.1c0-1.2,0.9-2.1,1.9-2.1
		c1,0,1.8,0.9,1.8,2.1C66.7,24.4,65.9,25.3,64.9,25.3z M84.1,16.5h-3.6v9.9h1.5v-3.7h2.1c1.7,0,3.2-1.2,3.2-3.1
		C87.3,17.7,85.8,16.5,84.1,16.5z M84.2,21.3h-2.1v-3.4h2.1c1.1,0,1.7,0.9,1.7,1.7C85.8,20.4,85.2,21.3,84.2,21.3L84.2,21.3z
		 M93.3,19.9c-1.1,0-2.2,0.5-2.6,1.5l1.3,0.6c0.3-0.6,0.8-0.7,1.3-0.7c0.8,0,1.5,0.5,1.6,1.3v0.1c-0.2-0.2-0.9-0.4-1.5-0.4
		c-1.4,0-2.8,0.8-2.8,2.2c0,1.3,1.2,2.2,2.4,2.2c1,0,1.5-0.5,1.9-0.9H95v0.8h1.4v-3.8C96.3,20.9,94.9,19.9,93.3,19.9L93.3,19.9z
		 M93.1,25.3c-0.5,0-1.2-0.2-1.2-0.9c0-0.8,0.9-1,1.6-1c0.6,0,0.9,0.2,1.3,0.3C94.7,24.7,93.9,25.3,93.1,25.3z M101.4,20.1l-1.7,4.3
		h-0.1l-1.7-4.3h-1.6l2.6,6l-1.5,3.3h1.5l4-9.3H101.4L101.4,20.1z M88.1,26.4h1.5v-9.9h-1.5V26.4z"/>
	<g>
		<path fill="#00CDFF" d="M12,8.6c-0.2,0.2-0.3,0.6-0.3,1.1v17.4c0,0.5,0.2,0.9,0.4,1.1l0.1,0.1l9.8-9.8v-0.2L12,8.6z"/>
		<path fill="#FFD200" d="M25.1,21.9l-3.2-3.2v-0.2l3.2-3.2l0.1,0.1l3.9,2.2c1.1,0.6,1.1,1.7,0,2.3L25.1,21.9z"/>
		<path fill="#FF3A44" d="M25.2,21.8l-3.3-3.3L12,28.4c0.4,0.4,0.9,0.4,1.7,0.1L25.2,21.8"/>
		<path fill="#00F076" d="M25.2,15.2L13.6,8.6c-0.7-0.4-1.3-0.3-1.7,0.1l9.9,9.8L25.2,15.2L25.2,15.2z"/>
	</g>
</g>
</svg>
