<?xml version="1.0" encoding="utf-8"?>
<!-- Generator: Adobe Illustrator 18.0.0, SVG Export Plug-In . SVG Version: 6.00 Build 0)  -->
<!DOCTYPE svg PUBLIC "-//W3C//DTD SVG 1.1//EN" "http://www.w3.org/Graphics/SVG/1.1/DTD/svg11.dtd">
<svg version="1.1" id="Layer_1" xmlns="http://www.w3.org/2000/svg" xmlns:xlink="http://www.w3.org/1999/xlink" x="0px" y="0px"
	 viewBox="0 0 343.3 150" enable-background="new 0 0 343.3 150" xml:space="preserve">
<g>
	<g>
		<path d="M170.5,33.1c-0.4-4.2-0.8-8.3-1.2-12.5c2.3-0.3,4.4-0.7,6.5-0.9c7.8-0.7,15.6-1.5,23.4-1.9c7.3-0.3,14.5,0.7,21,4.2
			c7.2,3.9,11.2,9.9,11.3,18.1c0.1,12.8,0,25.7,0,38.5c0,0.4-0.1,0.7-0.1,1.2c-4.1,0-8.1,0-12.1,0c-0.1-0.9-0.1-1.7-0.2-2.6
			c-2.4,0.5-4.7,0.9-6.9,1.4c-7.1,1.4-14.3,2.2-21.6,1.6c-6.1-0.5-12-1.8-17.1-5.5c-5.7-4-8.4-9.6-8.7-16.4c-0.2-4.8,0-9.6-0.1-14.4
			c0-1.4,0.7-2.2,2-2.4c2.7-0.4,5.4-0.8,8.1-1c11.9-0.8,23.7-0.9,35.5,1.6c2.2,0.5,4.4,1.1,6.6,1.7c0-1.7,0.2-3.5,0-5.1
			c-0.3-2.1-1.8-3.4-3.6-4.4c-3.7-2-7.7-2.6-11.8-2.5c-10,0.3-20,0.8-30,1.2C171.3,33.1,171,33.1,170.5,33.1z M178.9,54.5
			c0,1.2,0,2.1,0,3c0.1,3.4,1.4,5.5,4.6,6.6c1.7,0.6,3.6,1.1,5.4,1.4c8.6,1.3,17,0.1,25.3-1.8c2.6-0.6,2.6-0.6,2.6-3.3
			c0-4.6,0-4.6-4.5-5.5c-8.4-1.6-16.9-1.8-25.4-1.3C184.2,53.7,181.6,54.2,178.9,54.5z"/>
	</g>
	<g>
		<path fill="#11AF00" d="M87.2,64.1c0.1,8.6-6.1,16.3-14.4,18.1c-1.3,0.3-2.7,0.4-4,0.5c-9,0-18,0.1-27,0
			c-10.2-0.1-18.4-8.2-18.4-18.5c0-9.6,0-19.2,0-28.8C23.4,25.1,31.5,17,42,17c8.6,0,17.2,0.2,25.7,0c9.8-0.2,17.6,6.3,19.3,15.6
			c0.2,0.9,0.2,1.9,0.2,2.8c0,4.8,0,9.7,0,14.5C87.1,54.7,87.1,59.4,87.2,64.1z"/>
	</g>
	<g>
		<path d="M155.9,32.3c-3.2-0.2-6.5-0.4-9.9-0.5c-7.3-0.2-14.6-0.4-22-0.4c-2.9,0-5.7,0.7-8.2,2.2c-1.1,0.6-1.8,1.5-1.8,2.7
			c0,1.3,1.1,1.9,2.1,2.2c3.4,0.8,6.8,1.6,10.2,2.3c6.9,1.3,13.9,2.3,20.7,3.9c4.2,1,8.1,3,10.9,6.5c4.2,5.3,4.8,17.7-4,23.9
			c-4.5,3.1-9.6,4.5-14.9,5.1c-9.8,1.2-19.6,0.4-29.4-0.8c-2.8-0.3-5.6-0.7-8.5-1.1c0-4,0-7.9,0-12c3.3,0.2,6.6,0.4,9.8,0.5
			c8.8,0.3,17.6,1.3,26.4,0.2c1.9-0.3,3.8-0.8,5.7-1.4c0.8-0.3,1.6-0.8,2.2-1.5c1.9-2,1.5-4.7-1.1-5.7c-2.8-1.1-5.8-2-8.8-2.5
			c-6.2-1.1-12.5-1.9-18.7-2.9c-4-0.7-7.9-2-11.4-4.1c-10-5.9-8.3-20.7,0.4-26c4.3-2.6,9-3.9,14-4.4c11.8-1.3,23.4-0.3,35,1.7
			c0.4,0.1,1.1,0.5,1.1,0.7C155.9,24.6,155.9,28.4,155.9,32.3z"/>
	</g>
	<g>
		<path d="M252,53.5c0,0.8,0,1.4,0,2c0,7.3,0,14.7,0,22c0,1.8-0.4,2.5-2.2,2.8c-3.6,0.7-7.1,0.7-10.7,0c-1.2-0.3-2-0.9-2-2.4
			c0-14-0.1-28,0.1-42c0.1-10,5.2-16.4,15-18.8c9.4-2.3,19-2.2,28.4,0.6c0.3,0.1,0.5,0.2,0.9,0.4c-0.4,2.9-0.9,5.7-1.2,8.5
			c-0.1,1.2-0.9,1-1.6,1c-5,0-10.1-0.1-15.1,0.2c-2.7,0.1-5.4,0.8-7.9,1.6c-2.2,0.7-3.5,2.4-3.4,4.9c0,2.1,0,4.3,0,6.5
			c9.3,0,18.5,0,27.7,0c0,4.2,0,8.2,0,12.5C270.7,53.5,261.4,53.5,252,53.5z"/>
	</g>
	<g>
		<path d="M286.8,31.4c4.8,0,9.5,0,14.3,0c0,0.6,0.1,1.1,0.1,1.6c0,14.8,0,29.6,0,44.4c0,2-0.4,2.6-2.3,3c-3.4,0.7-6.8,0.8-10.2-0.1
			c-1.3-0.3-1.9-1.2-1.9-2.5c0-15.2,0-30.5,0-45.7C286.8,31.9,286.8,31.7,286.8,31.4z"/>
	</g>
	<g>
		<path d="M301.2,27.5c-0.5,0-0.7,0.1-1,0.1c-4.4,0-8.8,0-13.4,0c0-2.3,0.1-4.4,0-6.6c-0.2-3.7,0.2-4.6,4.6-5.1
			c2.3-0.2,4.6,0,6.9,0.2c2.4,0.3,3,1.2,3,3.5C301.2,22.2,301.2,24.8,301.2,27.5z"/>
	</g>
	<g>
		<g>
			<g>
				<path fill="#FFFFFF" d="M73,73.2c-1.4,1.3-3.7,0.8-4.3-1.1c-0.5-1.6-0.8-3.2-1.2-4.8c-0.4-1.4-0.7-2.8-1.1-4.3
					c-0.1-0.2-0.2-0.5-0.4-0.6c-1-0.7-2-1.4-2.9-2.2c-0.1,0.5-0.3,1-0.4,1.4c-0.4,1.3-0.9,2.7-1.4,4c-0.5,1.3-1.6,1.9-2.9,1.7
					c-2.9-0.5-5.7-1-8.6-1.4c-0.5-0.1-0.9-0.2-1.4-0.2c-1.6-0.3-2.6-1.6-2.3-3c0.3-1.5,1.6-2.4,3.2-2.1c2.6,0.5,5.2,0.9,7.9,1.4
					c0.4-1.5,0.8-2.9,1.2-4.4c-0.5-0.1-0.9-0.2-1.4-0.3c-0.9-0.3-1.4-0.8-1.3-1.7c0-0.9,0.2-1.7,0.3-2.6c0.3-2,0.3-4,0.2-6.1
					c-0.1-1.4-0.3-2.8-0.4-4.3c-0.8,0.3-1.5,0.6-2.3,0.8c0.4,1.5,0.8,3,1.3,4.5c0.1,0.2,0.2,0.5,0.2,0.7c0.2,0.9-0.2,1.8-1.1,2
					c-0.9,0.2-1.7-0.3-2-1.2c-0.4-1.4-0.8-2.8-1.2-4.3c-0.2-0.7-0.4-1.4-0.6-2.1c-0.3-1,0.1-1.7,1.1-2.1c2.1-0.8,4.2-1.6,6.3-2.3
					c1.8-0.6,3.4-0.1,4.8,1.1c1,0.9,1.6,2.1,1.9,3.4c0.2,0.8,0.4,1.6,0.5,2.4c0.1,0.3,0.2,1.3,0.2,1.3c-0.2,0-0.6,0.1-0.7,0.1
					c-0.4,0.1-0.5,0-0.7-0.3c-0.6-1.5-1.2-3-1.9-4.5c-0.4-0.8-1.2-1.1-2-0.8c-0.8,0.3-1.2,1.2-0.9,2c0.8,2.1,1.7,4.1,2.6,6.2
					c0.3,0.6,0.8,0.9,1.5,0.9c0.1,0,0.2,0,0.4,0c0.6-0.1,1.2-0.3,1.8-0.4c0,0-0.3,1.9-0.4,2.5c-0.1,0.7-0.2,1.5-0.4,2.3
					c0.7,0.5,1.3,0.9,1.9,1.4c1.2,0.9,2.5,1.8,3.7,2.7c0.7,0.5,1.2,1.2,1.4,2.1c0.8,3.2,1.6,6.4,2.4,9.7
					C73.7,70.7,74.1,72.1,73,73.2z"/>
			</g>
			<g>
				<path fill="#FFFFFF" d="M63,38.6c-2.7,0-4.9-2.2-4.9-4.9c0-2.7,2.2-4.9,4.9-4.9c2.7,0,4.9,2.2,4.9,4.9
					C67.9,36.4,65.7,38.6,63,38.6z"/>
			</g>
			<g>
				<path fill="#FFFFFF" d="M70.8,48.5c-2,0.5-4,0.9-6,1.4c-0.6,0.1-1.1,0.3-1.7,0.4c-0.1,0-0.3,0-0.4,0c-0.7,0-1.2-0.3-1.5-0.9
					c-0.9-2-1.7-4.1-2.6-6.2c-0.3-0.8,0.1-1.7,0.9-2c0.8-0.3,1.7,0,2,0.8c0.6,1.5,1.3,3,1.9,4.5c0.2,0.4,0.3,0.4,0.7,0.3
					c0.2,0,0.3-0.1,0.5-0.1c1.8-0.4,3.6-0.9,5.4-1.3c0.9-0.2,1.7,0.3,2,1.1C72.3,47.5,71.8,48.3,70.8,48.5z"/>
			</g>
		</g>
		<g>
			<g>
				<path fill="#FFFFFF" d="M39.6,45.7c-2.3,0-4.7,0-7,0c-0.1,0-0.2,0-0.3,0c-0.4,0-0.7-0.2-0.7-0.7c0-0.4,0.2-0.6,0.7-0.6
					c1,0,2,0,3,0c2.3,0,4.6,0,6.8,0c1.5,0,3,0,4.5,0c0.2,0,0.5,0,0.6,0.2c0.1,0.2,0.2,0.5,0.2,0.7c-0.1,0.2-0.4,0.4-0.7,0.4
					c-1.2,0-2.4,0-3.5,0C42.1,45.7,40.8,45.7,39.6,45.7C39.6,45.7,39.6,45.7,39.6,45.7z"/>
			</g>
			<g>
				<path fill="#FFFFFF" d="M42.3,39.7c-1.9,0-3.8,0-5.6,0c-0.2,0-0.4,0-0.5-0.1c-0.2-0.2-0.4-0.4-0.4-0.6c0-0.2,0.3-0.4,0.5-0.6
					c0.1-0.1,0.3,0,0.4,0c3.8,0,7.6,0,11.3,0c0.1,0,0.3,0,0.4,0c0.3,0,0.6,0.3,0.5,0.6c0,0.2-0.3,0.5-0.5,0.6c-0.1,0.1-0.3,0-0.4,0
					C46,39.7,44.1,39.7,42.3,39.7L42.3,39.7z"/>
			</g>
			<g>
				<path fill="#FFFFFF" d="M42.3,50.4c1.9,0,3.7,0,5.6,0c0.2,0,0.4,0,0.5,0c0.2,0.1,0.5,0.4,0.5,0.5c0,0.2-0.2,0.5-0.4,0.6
					c-0.1,0.1-0.3,0.1-0.5,0.1c-3.8,0-7.6,0-11.3,0c-0.1,0-0.3,0-0.4,0c-0.3-0.1-0.5-0.3-0.5-0.6c0-0.3,0.2-0.6,0.5-0.6
					c0.2,0,0.5,0,0.7,0C38.7,50.4,40.5,50.4,42.3,50.4L42.3,50.4z"/>
			</g>
			<g>
				<path fill="#FFFFFF" d="M48.2,34.3c-1.3,0-2.5,0-3.8,0c-0.6,0-0.8-0.2-0.8-0.6c0-0.4,0.3-0.6,0.8-0.6c2.5,0,5.1,0,7.6,0
					c0.5,0,0.8,0.2,0.9,0.6c0,0.4-0.3,0.7-0.9,0.7C50.8,34.4,49.5,34.3,48.2,34.3z"/>
			</g>
			<g>
				<path fill="#FFFFFF" d="M48.2,55.7c1.3,0,2.6,0,3.8,0c0.5,0,0.8,0.2,0.8,0.6c0,0.4-0.3,0.6-0.8,0.7c-2.5,0-5.1,0-7.6,0
					c-0.5,0-0.8-0.2-0.8-0.7c0-0.4,0.3-0.6,0.8-0.6C45.7,55.7,47,55.7,48.2,55.7z"/>
			</g>
		</g>
	</g>
	<g>
		<line fill="none" x1="64.7" y1="46.7" x2="64.6" y2="47.4"/>
	</g>
	<g>
		<line fill="none" x1="64.8" y1="49.9" x2="64.8" y2="49.1"/>
	</g>
	<g>
		<path d="M314.1,18.8h-1.4v4.3h-1v-4.3h-1.4v-0.8h3.9V18.8z"/>
		<path d="M316,18.1l1.3,3.7h0l1.3-3.7h1.3v5.1h-1v-1.5l0.1-2.2l0,0l-1.4,3.8H317l-1.4-3.7l0,0l0.1,2.2v1.5h-1v-5.1H316z"/>
	</g>
	<g>
		<path fill="#11AF00" d="M256.6,132.6c0,0.8,0.1,1.4,0.3,1.8h-7.2c-0.2-0.3-0.3-0.8-0.3-1.4v-16.7c0-1.5-0.6-2.2-1.9-2.2h-3.2v20.4
			h-7.2V87.7c0-1.9,0.9-2.9,2.8-2.9h10.4c4.1,0,6.1,2.7,6.1,8.1v12.4c0,2.7-0.9,4.6-2.8,5.6c2,1,3,3,3,5.9V132.6z M247.5,107.4
			c1.2,0,1.8-0.7,1.8-2.2V94c0-1.5-0.5-2.3-1.6-2.3h-2.8c-0.4,0-0.6,0.2-0.6,0.7v15H247.5z"/>
		<path fill="#11AF00" d="M279.2,131.7c0,1.8-0.9,2.7-2.8,2.7h-10c-3.9,0-5.8-2.5-5.8-7.5V97.3h6.9v28.6c0,1.3,0.5,2,1.4,2h2.9
			c0.3,0,0.5-0.2,0.5-0.6v-30h6.9V131.7z"/>
		<path fill="#11AF00" d="M301.8,134.4h-6.9v-28.6c0-1.3-0.5-2-1.5-2h-2.8c-0.3,0-0.5,0.2-0.5,0.6v30h-6.9V100
			c0-1.8,0.9-2.7,2.7-2.7H296c3.9,0,5.8,2.5,5.8,7.5V134.4z"/>
	</g>
</g>
</svg>
