<?xml version="1.0" encoding="utf-8"?>
<!-- Generator: Adobe Illustrator 18.0.0, SVG Export Plug-In . SVG Version: 6.00 Build 0)  -->
<!DOCTYPE svg PUBLIC "-//W3C//DTD SVG 1.1//EN" "http://www.w3.org/Graphics/SVG/1.1/DTD/svg11.dtd">
<svg version="1.1" id="Layer_1" xmlns="http://www.w3.org/2000/svg" xmlns:xlink="http://www.w3.org/1999/xlink" x="0px" y="0px"
	 viewBox="0 0 226.8 252" enable-background="new 0 0 226.8 252" xml:space="preserve">
<path fill="#11AF00" stroke="#FFFFFF" stroke-width="2" stroke-miterlimit="10" d="M180.6,156.1c0.2,18.2-12.8,34.4-30.4,38.2
	c-2.7,0.6-5.6,0.9-8.4,1c-19,0.1-38,0.1-56.9,0c-21.6-0.1-38.7-17.4-38.7-39c0-20.2,0-40.4,0-60.6c0-21.9,17.3-39,39.2-39
	c18.1,0,36.1,0.4,54.2-0.1c20.6-0.5,37.2,13.3,40.6,32.9c0.3,2,0.4,4,0.4,6c0,10.2,0,20.4,0,30.6
	C180.6,136.1,180.5,146.1,180.6,156.1z"/>
<g>
	<g>
		<path fill="#FFFFFF" d="M156.1,172c-3,2.8-7.8,1.6-9-2.3c-1-3.3-1.7-6.7-2.6-10.1c-0.7-3-1.5-6-2.3-9c-0.1-0.5-0.5-1-0.9-1.3
			c-2-1.6-4.1-3-6.2-4.6c-0.3,1-0.6,2-0.9,3c-0.9,2.8-1.8,5.6-2.9,8.4c-1,2.7-3.3,4-6.1,3.6c-6-1-12-2-18.1-3c-1-0.2-2-0.3-3-0.5
			c-3.3-0.6-5.4-3.4-4.8-6.4c0.5-3.1,3.4-5,6.7-4.5c5.4,1,10.9,1.9,16.6,2.9c0.9-3.1,1.8-6.2,2.6-9.2c-1-0.2-2-0.4-2.9-0.7
			c-1.9-0.5-2.9-1.7-2.8-3.6c0.1-1.8,0.4-3.6,0.7-5.4c0.7-4.3,0.6-8.5,0.3-12.8c-0.3-3-0.6-6-0.9-9.1c-1.6,0.6-3.2,1.2-4.8,1.7
			c0.9,3.2,1.8,6.3,2.7,9.5c0.1,0.5,0.3,1,0.4,1.5c0.5,2-0.5,3.7-2.3,4.3c-1.8,0.5-3.5-0.5-4.1-2.5c-0.9-3-1.7-6-2.6-9
			c-0.4-1.5-0.8-3-1.3-4.5c-0.6-2.1,0.2-3.7,2.3-4.5c4.4-1.7,8.8-3.4,13.3-4.9c3.8-1.3,7.1-0.1,10,2.3c2.2,1.9,3.4,4.3,4,7.1
			c0.4,1.7,0.7,3.4,1,5.1c0.1,0.6,0.5,2.7,0.5,2.7c-0.3,0.1-1.2,0.1-1.6,0.2c-0.7,0.2-1.1,0.1-1.4-0.7c-1.3-3.2-2.6-6.3-4-9.4
			c-0.8-1.7-2.6-2.4-4.3-1.7c-1.6,0.7-2.5,2.5-1.8,4.2c1.8,4.4,3.6,8.7,5.5,13c0.5,1.3,1.6,1.9,3.1,1.9c0.2,0,0.5,0,0.7-0.1
			c1.2-0.3,2.6-0.5,3.7-0.8c0,0-0.6,4-0.7,5.4c-0.2,1.6-0.5,3.2-0.8,4.8c1.4,1,2.8,2,4.1,3c2.6,1.9,5.2,3.8,7.8,5.6
			c1.6,1.1,2.4,2.6,2.9,4.5c1.6,6.8,3.4,13.6,5.1,20.4C157.7,166.7,158.4,169.8,156.1,172z"/>
		<path fill="#FFFFFF" d="M135.1,99.1c-5.7,0-10.3-4.5-10.3-10.3c-0.1-5.7,4.7-10.4,10.4-10.3c5.7,0,10.2,4.6,10.3,10.3
			C145.4,94.5,140.8,99,135.1,99.1z"/>
		<path fill="#FFFFFF" d="M151.6,119.9c-4.2,1-8.4,2-12.6,3c-1.2,0.3-2.3,0.5-3.5,0.8c-0.3,0.1-0.5,0.1-0.7,0.1
			c-1.5,0-2.5-0.7-3.1-1.9c-1.9-4.3-3.7-8.7-5.5-13c-0.7-1.7,0.2-3.5,1.8-4.2c1.7-0.7,3.5,0,4.3,1.7c1.4,3.1,2.7,6.3,4,9.4
			c0.3,0.7,0.7,0.9,1.4,0.7c0.3-0.1,0.7-0.1,1-0.2c3.8-0.9,7.6-1.8,11.4-2.7c2-0.4,3.7,0.5,4.2,2.4
			C154.6,117.7,153.6,119.4,151.6,119.9z"/>
	</g>
	<g>
		<path fill="#FFFFFF" d="M85.8,114c-4.9,0-9.8,0-14.7,0c-0.2,0-0.5,0-0.7,0c-0.8-0.1-1.4-0.5-1.4-1.4c0-0.9,0.5-1.3,1.4-1.3
			c2.1,0,4.3-0.1,6.4-0.1c4.8,0,9.6,0,14.4,0c3.2,0,6.4,0,9.6,0.1c0.5,0,1.1,0.1,1.3,0.4c0.3,0.3,0.5,1.1,0.3,1.4
			c-0.3,0.4-0.9,0.9-1.5,0.9c-2.5,0.1-5,0.1-7.5,0.1C90.9,114,88.4,114,85.8,114C85.8,114,85.8,114,85.8,114z"/>
		<path fill="#FFFFFF" d="M91.3,101.4c-4,0-7.9,0-11.9,0c-0.4,0-0.9,0.1-1.1-0.1c-0.4-0.3-0.9-0.9-0.9-1.4c0-0.4,0.6-0.8,1-1.2
			c0.2-0.2,0.6-0.1,0.9-0.1c8,0,15.9,0,23.9,0c0.3,0,0.6,0,0.9,0c0.7,0.1,1.2,0.6,1.1,1.3c-0.1,0.5-0.6,1-1.1,1.4
			c-0.2,0.2-0.6,0.1-0.9,0.1C99.3,101.4,95.3,101.4,91.3,101.4L91.3,101.4z"/>
		<path fill="#FFFFFF" d="M91.4,123.9c3.9,0,7.9,0,11.8,0c0.4,0,0.9-0.1,1.1,0.1c0.4,0.3,1,0.8,1,1.2c0,0.5-0.5,1-0.9,1.4
			c-0.2,0.2-0.7,0.1-1.1,0.1c-8,0-15.9,0-23.9,0c-0.3,0-0.6,0-0.9-0.1c-0.7-0.2-1.1-0.6-1.1-1.4c0-0.7,0.4-1.2,1.2-1.3
			c0.5-0.1,1,0,1.5,0C83.8,123.9,87.6,123.9,91.4,123.9L91.4,123.9z"/>
		<path fill="#FFFFFF" d="M104,90.1c-2.7,0-5.3,0-8,0c-1.2,0-1.7-0.5-1.7-1.4c0-0.9,0.6-1.4,1.7-1.4c5.3,0,10.7,0,16,0
			c1.1,0,1.8,0.5,1.8,1.3c0,0.9-0.6,1.4-1.8,1.4C109.3,90.1,106.6,90.1,104,90.1z"/>
		<path fill="#FFFFFF" d="M103.9,135.1c2.7,0,5.4,0,8.1,0c1.2,0,1.8,0.5,1.8,1.3c0,0.8-0.6,1.4-1.8,1.4c-5.4,0-10.7,0-16.1,0
			c-1.1,0-1.7-0.5-1.7-1.4c0-0.9,0.6-1.3,1.7-1.3C98.6,135.1,101.3,135.1,103.9,135.1z"/>
	</g>
</g>
<line fill="none" x1="113.5" y1="125.3" x2="113.3" y2="126.7"/>
<line fill="none" x1="113.5" y1="126.9" x2="113.3" y2="125.1"/>
</svg>
